<svg width="21" height="21" viewBox="0 0 21 21" fill="none" xmlns="http://www.w3.org/2000/svg">
<path d="M19.0057 0.611572H1.22235C0.92908 0.613753 0.648436 0.731223 0.441054 0.938605C0.233672 1.14599 0.116202 1.42663 0.114021 1.71991V19.5032C0.116202 19.7965 0.233672 20.0772 0.441054 20.2845C0.648436 20.4919 0.92908 20.6094 1.22235 20.6116H10.7974V12.8782H8.19735V9.85324H10.7974V7.62824C10.7974 5.04491 12.3724 3.63657 14.689 3.63657C15.464 3.63657 16.239 3.63657 17.014 3.75324V6.44491H15.4224C14.164 6.44491 13.9224 7.04491 13.9224 7.91991V9.8449H16.9224L16.5307 12.8699H13.9224V20.6116H19.0057C19.299 20.6094 19.5796 20.4919 19.787 20.2845C19.9944 20.0772 20.1118 19.7965 20.114 19.5032V1.71991C20.1118 1.42663 19.9944 1.14599 19.787 0.938605C19.5796 0.731223 19.299 0.613753 19.0057 0.611572Z" fill="#32BAAE"/>
</svg>
